<?xml version="1.0" standalone="no"?>
<!DOCTYPE svg PUBLIC "-//W3C//DTD SVG 20010904//EN"
 "http://www.w3.org/TR/2001/REC-SVG-20010904/DTD/svg10.dtd">
<svg version="1.0" xmlns="http://www.w3.org/2000/svg"
 width="401.000000pt" height="402.000000pt" viewBox="0 0 401.000000 402.000000"
 preserveAspectRatio="xMidYMid meet">
<metadata>
Created by potrace 1.11, written by Peter Selinger 2001-2013
</metadata>
<g transform="translate(0.000000,402.000000) scale(0.100000,-0.100000)"
fill="#000000" stroke="none">
<circle cx="2000" cy="2000" r="1300" fill="#FFFFFF"/>
<path d="M1835 4010 c-502 -37 -925 -239 -1286 -617 -372 -388 -549 -835 -549
-1383 0 -548 177 -995 549 -1383 327 -342 693 -534 1146 -603 150 -22 470 -22
620 0 448 68 815 259 1136 592 376 391 559 846 559 1394 0 549 -182 1003 -559
1394 -320 332 -698 529 -1131 590 -137 19 -347 26 -485 16z m314 -1072 c111
-37 183 -100 235 -204 34 -67 47 -134 47 -229 -1 -142 -36 -272 -129 -470
-118 -253 -78 -315 258 -400 80 -20 163 -45 185 -54 45 -20 90 -62 111 -103
17 -33 34 -142 34 -225 l0 -63 -895 0 -895 0 0 63 c1 95 18 196 42 238 40 71
86 94 307 149 228 58 301 109 301 212 0 39 -11 73 -56 165 -164 342 -183 588
-59 771 103 151 323 216 514 150z"/>
</g>
</svg>
